<svg width="212" height="88" viewBox="0 0 212 88" fill="none" xmlns="http://www.w3.org/2000/svg">
<path d="M148.372 17.5812C150.353 15.3448 152.801 12.3494 155.208 10.5618C154.215 12.4905 151.65 17.0876 150.328 18.8815L149.44 18.7327L149.18 18.2945L148.372 17.5812Z" fill="black"/>
<path d="M122.65 64.7461C123.4 65.3081 123.333 65.4396 124.429 65.3324C122.464 67.7079 120.318 70.0574 118.254 72.3749C119.064 70.4125 121.457 66.7108 122.65 64.7461Z" fill="#B1CEE8"/>
<path d="M166.828 8.46752L185.445 8.4464C187.553 8.4452 189.789 8.39097 191.9 8.4452C196.639 8.56663 203.976 7.94508 207.748 10.8642C214.659 16.2134 211.997 25.326 205.468 29.9025C203.105 31.5581 201.019 32.2994 198.277 33.3839C211.92 36.4751 206.793 48.2294 200.092 54.7389C199.962 54.8632 199.826 54.9844 199.688 55.1023C192.76 60.9878 180.067 60.008 170.997 60.0048C164.8 60.0197 158.602 59.9936 152.408 59.9266L157.678 40.5481C158.154 38.8747 158.699 37.1715 159.25 35.5144C162.188 26.6682 163.801 17.2686 166.828 8.46752Z" fill="black"/>
<path d="M175.024 39.0354C178.538 39.4055 182.433 38.8144 186.514 39.4494C190.523 41.6766 189.159 45.4012 185.836 47.5692C182.176 49.0666 176.736 48.6167 172.622 48.555C173.159 45.2178 174.244 42.316 175.024 39.0354Z" fill="#B1CEE8"/>
<path d="M180.764 19.4167C182.634 19.6702 188.889 19.6961 191.136 19.7436C195.51 21.8835 193.892 25.161 190.541 27.3798C187.52 28.6448 181.903 28.2119 178.301 28.3083L180.764 19.4167Z" fill="#B1CEE8"/>
<path d="M138.902 7.01947C140.883 4.78308 143.332 1.78763 145.739 0C144.745 1.92873 142.181 6.52583 140.858 8.31969C143.077 8.56183 147.349 8.47616 149.72 8.47304L163.91 8.48576L160.557 20.5384C153.447 20.5233 145.158 20.3452 138.144 20.6044C137.486 22.8134 137.037 25.4923 136.412 27.8182C141.42 27.6085 148.068 27.7971 153.198 27.8105C152.376 31.8919 151.137 35.3683 149.781 39.3299C145.34 38.9795 137.629 39.1425 133.003 39.131C132.137 42.0348 131.371 44.6614 130.69 47.6033C137.629 47.6098 146.057 47.4427 152.871 47.7708C151.986 51.7751 149.822 55.9494 149.554 59.9559C144.618 60.0279 113.874 59.4102 111.844 60.4925C109.304 61.8465 106 66.1952 103.521 68.2473C105.096 65.433 106.601 62.6578 108.396 59.9432C106.592 59.983 104.62 59.9391 102.802 59.9288C104.586 55.3379 106.462 47.0605 107.846 42.1053L117.374 8.45169C122.996 8.48481 128.685 8.54888 134.307 8.51072C136.611 8.49488 137.411 8.41017 138.902 7.01947Z" fill="black"/>
<path d="M139.711 7.73462L139.971 8.17282C139.418 8.68207 139.185 9.01564 138.809 9.636C134.9 16.0954 131.018 22.5686 127.136 29.0393C126.732 29.7141 126.118 30.5233 125.587 31.1245C129.466 30.865 133.458 31.2025 137.094 30.9591C134.933 33.8197 132.581 35.8454 130.279 38.4612C125.402 44.0002 119.91 49.3487 114.96 54.774C113.864 54.8812 113.931 54.7497 113.181 54.1877C115.89 49.2901 120.377 43.0552 122.541 38.4199C118.822 38.3909 114.993 38.2702 111.264 38.1922C112.974 36.6877 115.801 33.2577 117.552 31.4369C123.479 25.2759 129.092 18.7678 135.19 12.7378C136.599 11.3459 138.164 8.80206 139.711 7.73462Z" fill="#B1CEE8"/>
<path d="M14.502 8.4126C20.0975 8.54195 26.0725 8.48219 31.6978 8.50259C30.7333 13.2514 27.4771 25.7083 25.3512 29.7864C28.5108 27.4981 31.8884 23.9778 34.7409 21.2461C39.2136 17.0032 43.6591 12.7392 48.0776 8.45363C53.2804 8.59642 59.4624 8.51699 64.6989 8.49539C58.3631 14.4189 50.3134 21.3193 44.4557 27.4386C46.4925 34.891 48.6182 43.0974 50.9038 50.4603C52.0539 53.9818 52.8546 56.3857 53.6155 59.9758L33.5332 59.9979C32.4594 54.2033 30.422 46.9127 29.1322 40.7761C18.8837 48.1301 20.5861 49.708 17.4218 60.0044C11.6141 60.0274 5.80679 60.0001 0 59.9221C0.771638 56.4623 2.05264 53.0473 3.04229 49.6146C4.92007 43.102 6.5339 36.5226 8.41278 30.0129C10.3426 23.3265 13.2211 15.1518 14.502 8.4126Z" fill="black"/>
<path d="M85.9105 7.78336C89.8484 7.07925 98.4283 7.87383 102.091 9.69769C107.279 12.2804 109.174 15.6245 110.823 20.261C105.265 21.6368 99.6622 22.8753 94.1152 24.2809C93.6762 22.8576 93.1411 21.9039 91.8938 20.8329C89.5089 18.4885 82.5777 18.434 80.337 20.9665C76.6321 25.1535 83.1604 25.7683 85.8361 26.3436C90.6137 27.5048 98.1295 28.3153 102.036 31.1377C108.834 36.046 106.153 46.0612 101.118 51.0046C93.9982 57.9957 86.11 60.0692 75.879 60.7183C70.2476 60.7959 63.3297 60.3615 58.5122 57.5357C53.4456 54.564 52.4199 50.0132 51.3619 45.228C56.0449 44.1663 64.3896 43.1291 69.3597 42.43C71.0806 48.4202 74.5578 49.4245 81.678 48.4711C83.0807 48.2832 84.4173 47.7164 85.7185 47.2158C86.159 46.0022 87.1071 43.5071 85.2841 42.8202C76.8492 39.6414 61.1149 40.0401 60.1551 29.5286C59.4507 21.8117 64.8552 15.1364 72.3503 11.3236C76.8221 9.04854 80.7844 8.2758 85.9105 7.78336Z" fill="black"/>
<path d="M64.815 80.0839C65.4608 79.3407 66.6236 77.985 67.6778 78.0128C70.0873 78.0764 81.4466 77.7604 83.0497 78.361C84.0263 79.7712 82.5411 84.2557 80.556 84.8917L79.9642 84.7031L79.3212 84.1105C77.4783 84.7808 76.5576 85.3201 74.9412 84.0947L73.9344 83.1554C73.6417 83.891 73.5153 84.4823 72.7306 84.8646L71.9086 84.8492C71.6463 84.2692 71.5866 84.2442 71.0772 83.7856C69.9656 84.4388 69.0011 85.0577 67.6197 85.0153C65.209 83.6875 67.7912 80.4035 66.9371 79.5274C65.6199 80.3128 66.3071 83.2312 65.3305 84.6253L64.7536 84.8475L63.9706 84.5464C63.6096 84.0465 62.9976 83.8634 62.3654 83.5845C62.3466 81.9985 63.1138 80.7585 63.8475 79.3344C64.278 79.9233 64.05 79.7191 64.815 80.0839Z" fill="black"/>
<path d="M63.8475 79.3281C64.278 79.917 64.05 79.7128 64.815 80.0776C64.1555 81.6835 63.8021 82.811 63.9706 84.5401C63.6096 84.0402 62.9976 83.8571 62.3654 83.5782C62.3466 81.9922 63.1138 80.7522 63.8475 79.3281Z" fill="#B1CEE8"/>
<path d="M71.0784 83.7789C71.65 82.5569 72.2421 79.9478 72.8439 79.4141L73.1488 79.5866C73.5455 81.2473 71.8301 83.0618 71.9098 84.8425C71.6475 84.2624 71.5878 84.2375 71.0784 83.7789Z" fill="#B1CEE8"/>
<path d="M73.9368 83.1527C73.9467 82.0387 74.6724 79.8995 75.9451 79.4956C76.0594 80.9465 74.7629 81.1344 74.9436 84.092L73.9368 83.1527Z" fill="#B1CEE8"/>
<path d="M79.3239 84.1071C79.7093 83.4551 81.6133 79.7733 81.8983 79.5684C82.7214 80.8602 80.09 83.6152 79.9668 84.6996L79.3239 84.1071Z" fill="#B1CEE8"/>
<path d="M96.1601 80.6526C98.864 75.9058 103.577 79.0402 106.13 77.7107L106.283 77.2766C105.818 76.7004 105.597 76.5945 104.949 76.1947C105.53 75.4861 107.597 75.3015 108.131 76.6905C108.015 77.1244 107.926 77.5326 107.705 77.9315C106.501 80.1026 108.399 83.4952 104.874 84.5442C103.845 84.8506 103.136 84.7734 102.065 84.7263C101.798 84.7844 101.542 84.8403 101.272 84.8895C100.81 85.9438 100.558 86.9116 99.8273 87.8187C99.0521 88.059 99.3766 88.0685 98.6141 87.7765L98.0965 86.9514C97.8848 87.3373 97.6519 87.573 97.3575 87.9094L96.8941 87.9262C96.5236 87.1069 96.7615 86.65 97.023 85.793L96.193 85.1542L95.3516 84.303C95.4092 82.7798 95.6825 82.0956 96.1601 80.6526Z" fill="black"/>
<path d="M96.1945 85.1565C97.5613 83.6406 97.3568 80.1325 99.0473 79.4154L99.7846 79.3967C100.885 80.9787 98.6865 84.6617 97.0245 85.7954L96.1945 85.1565Z" fill="#B1CEE8"/>
<path d="M100.13 84.8427C100.414 83.8567 101.85 80.0695 102.695 79.5728C102.605 82.1446 101.093 81.9685 102.068 84.7288C101.801 84.7868 101.545 84.8428 101.275 84.8919C100.813 85.9462 100.561 86.914 99.8301 87.8212C99.0549 88.0614 99.3794 88.071 98.6169 87.7789L98.0992 86.9539C98.3162 85.9575 99.2601 85.4101 100.13 84.8427Z" fill="#B1CEE8"/>
<path d="M105.023 79.4998L105.654 79.7635C106.796 81.2478 105.167 82.6452 104.127 83.8331C103.952 83.8566 103.746 83.7765 103.546 83.7266C103.084 82.6814 104.478 80.5211 105.023 79.4998Z" fill="#B1CEE8"/>
<path d="M155.452 81.8503C156.407 78.3917 158.302 77.6237 162.491 77.906C163.868 77.9988 164.391 77.7752 165.609 78.4783L165.805 78.6967C166.32 80.0473 166.165 79.6919 167.894 80.4759C166.854 81.7685 166.334 82.2897 166.035 83.8808L164.466 83.8611C163.868 84.6749 163.282 84.858 162.244 85.2319L160.269 84.0164C157.912 84.7918 156.766 85.5698 154.702 83.9175C155.203 83.0776 155.427 82.7999 155.452 81.8503Z" fill="black"/>
<path d="M165.61 78.4788L165.806 78.6971C166.321 80.0478 166.166 79.6923 167.895 80.4764C166.855 81.7689 166.334 82.2901 166.036 83.8812L164.467 83.8616C163.869 84.6753 163.283 84.8584 162.245 85.2323C162.231 83.8704 162.727 83.4003 162.085 82.3607C162.386 82.3218 162.68 82.2326 162.942 82.0982C163.842 81.6321 164.135 80.3679 164.423 79.4987L164.699 79.5068C165.499 79.072 165.242 79.3261 165.61 78.4788Z" fill="black"/>
<path d="M165.807 78.6975C166.321 80.0481 166.166 79.6927 167.895 80.4767C166.855 81.7693 166.335 82.2905 166.036 83.8816L164.467 83.8619C165.179 81.8014 165.773 80.8552 165.807 78.6975Z" fill="#B1CEE8"/>
<path d="M162.086 82.3587C161.798 82.1893 161.798 82.0455 161.685 81.7508C161.992 79.944 162.238 79.249 164.424 79.4967C164.136 80.3659 163.843 81.6301 162.943 82.0961C162.681 82.2305 162.387 82.3198 162.086 82.3587Z" fill="#B1CEE8"/>
<path d="M159.898 79.3196C161.422 80.1569 159.804 81.9335 158.918 82.6289C158.517 82.0107 159.499 80.6066 159.898 79.3196Z" fill="#B1CEE8"/>
<path d="M145.481 80.4549C147.296 77.9 148.043 77.5909 151.427 78.2019C155.463 77.2758 155.917 78.7272 154.877 81.7731L155.226 81.9238L155.452 81.854C155.428 82.8036 155.203 83.0812 154.703 83.9212C154.066 84.0472 151.585 84.5857 151.084 84.6294C148.602 85.23 146.455 85.4767 144.433 83.9168C144.336 83.8129 143.536 83.2317 143.365 83.1033C143.901 81.9226 144.197 81.1921 144.582 79.9617L145.481 80.4549Z" fill="black"/>
<path d="M145.481 80.4546C147.296 77.8997 148.043 77.5906 151.427 78.2016C150.555 78.241 149.855 78.1743 149.191 78.6127C149.366 79.269 150.785 80.0718 151.507 80.5484C151.388 81.0562 150.995 82.0987 151.012 82.4409C149.54 82.0329 149.925 82.4447 148.397 81.6302C148.093 82.0632 147.955 82.2971 147.717 82.7615L146.707 82.9528L146.497 83.4174C147.415 84.9571 150.104 83.2047 151.084 84.629C148.602 85.2297 146.455 85.4764 144.433 83.9165C144.336 83.8126 143.536 83.2314 143.365 83.103C143.901 81.9223 144.197 81.1918 144.582 79.9614L145.481 80.4546Z" fill="black"/>
<path d="M144.582 79.9587L145.481 80.4519C145.456 81.3962 146.082 81.2347 146.09 81.4872C146.129 82.4925 144.969 82.4987 144.433 83.9139C144.336 83.81 143.536 83.2287 143.365 83.1003C143.901 81.9196 144.197 81.1891 144.582 79.9587Z" fill="#B1CEE8"/>
<path d="M151.509 80.5462C152.019 79.6287 151.725 79.8526 152.666 79.3496C153.535 79.4583 153.25 79.3093 153.75 79.8857C153.72 81.3604 152.564 81.9753 151.014 82.4387C150.998 82.0964 151.39 81.054 151.509 80.5462Z" fill="#B1CEE8"/>
<path d="M53.9385 85.4352C54.3604 84.7498 54.9923 84.3694 55.6815 83.8717C53.3962 80.9734 59.19 75.1243 63.8483 79.3274C63.1146 80.7514 62.3474 81.9914 62.3662 83.5775C61.3544 84.6684 60.8475 85.1174 59.281 85.5501L59.4783 85.8086L61.2351 85.9449C61.197 86.5852 61.2271 86.6471 60.8343 87.1616C58.7968 87.8753 56.5713 87.7577 54.5532 87.0596C53.8557 86.2974 54.0591 86.5235 53.9385 85.4352Z" fill="black"/>
<path d="M53.9385 85.4373L55.3218 85.7068C56.9702 85.5268 57.5787 85.4795 59.281 85.5522L59.4783 85.8107L61.2351 85.947C61.197 86.5873 61.2271 86.6492 60.8343 87.1637C58.7968 87.8774 56.5713 87.7598 54.5532 87.0617C53.8557 86.2995 54.0591 86.5256 53.9385 85.4373Z" fill="black"/>
<path d="M55.3224 85.7009C56.9708 85.5219 57.5792 85.4748 59.2816 85.5472L59.4788 85.8043L61.2357 85.94C59.9016 86.1794 57.6392 86.2812 56.2672 86.211C55.6298 86.1782 55.8185 86.1954 55.3224 85.7009Z" fill="#B1CEE8"/>
<path d="M119.326 79.1447C121.301 77.7106 123.481 77.2539 125.282 79.1659C125.213 80.6955 125.02 81.4908 124.677 82.9717C123.863 83.7819 123.625 84.0615 122.574 84.6063L122.214 85.2583L123.224 86.021C123.174 86.5626 123.147 86.6499 122.958 87.1714C121.5 87.8832 118.601 87.6267 117.013 87.2979C115.995 87.0874 116.044 86.9094 115.544 86.2259C116.078 84.9782 116.589 84.8184 117.882 84.0989L117.865 83.8261C116.504 82.3572 117.882 80.1865 119.326 79.1447Z" fill="black"/>
<path d="M117.882 84.1005C118.521 84.0362 119.447 83.86 119.979 84.0863L121.918 83.9963L122.574 84.6078L122.214 85.2598L123.224 86.0225C123.174 86.5642 123.147 86.6515 122.958 87.173C121.5 87.8848 118.601 87.6282 117.013 87.2995C115.995 87.089 116.044 86.9109 115.544 86.2275C116.078 84.9798 116.589 84.82 117.882 84.1005Z" fill="black"/>
<path d="M117.882 84.1005C118.521 84.0362 119.447 83.86 119.979 84.0863L121.918 83.9963L122.574 84.6078L122.214 85.2598C120.789 85.4122 117.876 85.3918 116.96 85.9443L115.544 86.2275C116.078 84.9798 116.589 84.82 117.882 84.1005Z" fill="black"/>
<path d="M116.96 85.9448C117.876 85.3932 120.789 85.4136 122.214 85.2615L123.224 86.0229C121.846 86.1283 117.981 86.5416 116.96 85.9448Z" fill="#B1CEE8"/>
<path d="M119.327 79.1479L119.88 79.8017L121.731 80.5374C122.86 81.9044 121.12 83.2941 119.98 84.088C119.448 83.8617 118.522 84.0378 117.882 84.1021L117.866 83.8293C116.505 82.3604 117.882 80.1897 119.327 79.1479Z" fill="black"/>
<path d="M121.731 80.5295C122.86 81.8965 121.12 83.2862 119.98 84.0801C119.449 83.8538 118.522 84.0299 117.883 84.0942L117.866 83.8214C118.181 83.7633 118.547 83.6572 118.859 83.5763C118.345 81.3474 120.743 81.8149 121.731 80.5295Z" fill="black"/>
<path d="M119.879 79.7946C121.03 79.3837 122.062 79.2582 123.185 79.6559C124.35 80.9575 123.003 82.9755 121.918 83.9909L119.979 84.0809C121.118 83.287 122.859 81.8973 121.73 80.5304L119.879 79.7946Z" fill="#B1CEE8"/>
<path d="M39.0491 78.0044C42.3642 77.5983 42.0421 78.3691 43.0926 80.3886C43.4022 80.984 44.6298 81.3924 45.1594 82.5676C45.0512 83.8403 43.8737 84.7579 42.4175 84.8002C42.093 84.1124 42.8923 83.6449 42.8801 82.494C42.0463 82.8338 41.5278 83.4553 40.916 84.0625C39.666 84.7803 38.3945 84.7095 36.9771 84.6989C34.8868 84.6833 32.1724 85.1426 32.6364 82.487C33.6302 81.3226 34.1049 81.1551 35.7199 80.8659C36.5455 80.0279 38.094 78.8049 39.0491 78.0044Z" fill="black"/>
<path d="M126.75 79.6874C128.495 77.6943 131.326 77.2835 134.037 78.3262C134.444 78.4824 134.624 79.2703 134.762 79.6535C134.458 81.0709 134.347 81.8931 133.32 83.091C131.918 84.7191 129.132 85.2437 127.01 84.4181C126.738 84.1556 126.578 84.0282 126.368 83.7246C126.29 83.0954 126.418 83.247 126 82.8679L124.677 82.9703C125.02 81.4894 125.214 80.6941 125.283 79.1645C125.825 79.3149 126.282 79.4056 126.75 79.6874Z" fill="black"/>
<path d="M125.283 79.1694C125.825 79.3199 126.282 79.4106 126.75 79.6923C126.619 80.6393 126.415 81.3377 126.877 82.1958L127.236 82.2851C128.83 80.8371 127.986 80.21 129.4 79.2397L131.616 79.7514L132.111 79.4308L132.626 79.5508C133.813 81.7166 131.32 83.7034 128.913 83.5083C127.618 83.4034 126.987 82.8119 126.368 83.7296C126.29 83.1003 126.418 83.252 126 82.8728L124.677 82.9753C125.02 81.4944 125.214 80.6991 125.283 79.1694Z" fill="#B1CEE8"/>
<path d="M129.4 79.238L131.616 79.7497C131.362 80.7852 131.317 81.1408 130.676 82.0324L130.23 82.053C129.422 81.0645 129.704 80.5863 129.4 79.238Z" fill="black"/>
<path d="M88.0395 79.3903C90.2537 77.6663 93.8657 76.978 95.2275 79.8475L95.402 80.2845L95.7617 79.5802L95.9803 79.6721L96.1629 80.6584C95.6854 82.1014 95.412 82.7856 95.3545 84.3088C94.7187 84.3579 93.8649 84.2221 93.2122 84.1465C92.4663 84.6721 92.2162 84.9015 91.2984 85.1665L90.6914 84.0217C89.2975 84.6152 88.4897 85.2524 87.2767 84.3457L86.6415 84.3846C86.1269 83.0201 87.0294 80.4513 88.0395 79.3903Z" fill="black"/>
<path d="M89.2968 80.478C90.5581 80.6813 90.3805 80.4883 91.2005 81.1505C91.5079 82.0674 90.7772 83.1685 90.6895 84.0185C89.2956 84.612 88.4878 85.2491 87.2748 84.3425L87.6605 84.0936C88.0899 82.665 89.3656 81.9707 89.2968 80.478Z" fill="black"/>
<path d="M89.2985 80.4717L89.2626 79.9572C90.1194 79.279 91.8805 79.2884 92.737 80.034C93.0843 82.3748 91.4264 83.7686 91.2983 85.1569L90.6913 84.0122C90.779 83.1622 91.5097 82.0611 91.2023 81.1441C90.3823 80.482 90.5599 80.675 89.2985 80.4717Z" fill="#B1CEE8"/>
<path d="M95.2257 79.8445L95.4002 80.2815L95.7599 79.5771L95.9785 79.6691L96.1611 80.6554C95.6836 82.0984 95.4102 82.7826 95.3527 84.3057C94.7169 84.3549 93.8631 84.2191 93.2104 84.1435C94.2548 82.7701 94.7321 81.3991 95.2257 79.8445Z" fill="#B1CEE8"/>
<path d="M47.4881 84.5245L46.7558 84.7241C44.1315 83.4414 49.2295 75.4191 53.5221 78.4071C56.5419 80.5088 52.6959 85.7774 48.6546 84.4966C48.2399 84.3579 47.9803 84.4599 47.4881 84.5245Z" fill="black"/>
<path d="M47.4896 84.5195C47.5834 83.0966 47.9079 80.9941 49.2266 79.9944C49.7616 79.5898 50.46 79.386 51.1682 79.428C51.3965 79.4407 51.6106 79.4739 51.8339 79.5106L52.0799 79.7981C50.1258 81.8662 48.383 79.6776 48.6561 84.4916C48.2413 84.3529 47.9818 84.4549 47.4896 84.5195Z" fill="#B1CEE8"/>
<path d="M30.567 77.7581C31.6341 77.9762 31.8499 78.0028 32.772 78.5147C33.879 80.2515 31.2127 80.3307 30.879 82.1164C31.3389 82.6839 31.452 82.7456 31.5068 83.4072C31.0658 84.1824 30.2355 84.479 29.3576 84.9148C22.6826 84.2937 26.8161 79.1833 30.567 77.7581Z" fill="black"/>
<path d="M84.9839 83.661L84.3946 84.6306L83.7757 84.6387L83.8077 84.8657L83.5911 84.8038C83.1744 83.4614 84.9426 79.1167 85.2553 77.4213C84.4449 76.6485 83.772 77.6024 82.7307 76.8607C83.2987 75.6228 85.3369 75.3778 86.6124 75.6972C87.3727 76.2393 87.1331 75.9559 87.4119 76.9444C87.4213 77.8232 87.218 78.8182 88.0367 79.3891C87.0265 80.4501 86.124 83.0188 86.6386 84.3834C86.1666 83.9953 85.602 83.8672 84.9839 83.661Z" fill="black"/>
<path d="M84.9851 83.6595C85.391 81.7869 87.1193 79.6537 87.4132 76.9429C87.4226 77.8217 87.2192 78.8167 88.0379 79.3876C87.0278 80.4485 86.1253 83.0173 86.6399 84.3818C86.1679 83.9938 85.6032 83.8656 84.9851 83.6595Z" fill="#B1CEE8"/>
<path d="M139.926 79.4C141.772 79.849 142.496 80.2263 143.706 78.8135L144.583 79.9563C144.198 81.1867 143.902 81.9172 143.365 83.0979C141.982 84.4763 140.164 85.813 138.302 83.9829C138.64 81.7391 138.814 81.3758 139.926 79.4Z" fill="black"/>
<path d="M137.282 79.3281C137.891 79.6401 137.968 79.6773 138.665 79.6125L139.927 79.4001C138.815 81.3759 138.641 81.7392 138.303 83.9831C137.844 84.1813 137.288 84.3975 136.875 84.6418C135.987 84.8998 135.44 84.7366 134.709 84.3493C134.482 83.9202 133.915 83.7676 133.32 83.0906C134.347 81.8926 134.457 81.0704 134.762 79.6531C135.553 79.3958 136.247 79.4445 137.1 79.433L137.282 79.3281Z" fill="black"/>
<path d="M134.762 79.6512C135.553 79.394 136.247 79.4427 137.1 79.4312C135.938 80.8564 134.781 82.5514 134.709 84.3474C134.482 83.9183 133.915 83.7657 133.32 83.0887C134.347 81.8907 134.457 81.0685 134.762 79.6512Z" fill="#B1CEE8"/>
<path d="M139.927 79.4011C138.815 81.3769 138.641 81.7402 138.303 83.9841C137.844 84.1823 137.288 84.3985 136.875 84.6428C137.18 82.4695 137.158 81.4071 138.666 79.6135L139.927 79.4011Z" fill="#B1CEE8"/>
<path d="M167.899 80.4749C168.876 80.0703 169.147 79.9023 170.232 79.9321C173.513 81.4603 170.442 86.9923 166.04 83.8797C166.339 82.2887 166.859 81.7674 167.899 80.4749Z" fill="black"/>
<path d="M137.283 79.3279C139.801 77.0792 141.787 78.5494 142.686 77.3468C142.28 76.8296 142.017 76.5738 141.84 75.9609L142.169 75.7118C143.082 75.5465 143.334 75.4584 144.233 75.7675C145.356 76.8985 144.861 77.9079 143.707 78.8133C142.498 80.2261 141.773 79.8489 139.928 79.3998L138.666 79.6122C137.969 79.677 137.892 79.6398 137.283 79.3279Z" fill="black"/>
</svg>
